<svg width="172" height="102" viewBox="0 0 172 102" fill="none" xmlns="http://www.w3.org/2000/svg">
<path fill-rule="evenodd" clip-rule="evenodd" d="M85.5 0L0 41H25L85.5 12.5L147 41V93H158V41H172L85.5 0Z" fill="#344170"/>
<path fill-rule="evenodd" clip-rule="evenodd" d="M85.5 0L0 41H25L85.5 12.5L147 41V93H158V41H172L85.5 0Z" fill="#6D9907"/>
<path d="M1.5 102H170V99.5H1.5V102Z" fill="#344170"/>
<path d="M1.5 102H170V99.5H1.5V102Z" fill="#6D9907"/>
<path d="M138 92L139.5 47H125.5V92H138Z" fill="#344170"/>
<path d="M91.5 92H79L81 47H107C107 47 116.5 48.5 117 59C117.5 69.5 107 72 107 72L115.5 92H101.5L94.5 67C94.5 67 102.5 67.5 103.5 64C105.5 59 101.5 56 101.5 56H91.5V92Z" fill="#344170"/>
<path d="M19 92L22.5 47H39L44.5 74L52.5 47H69V92H57.5V77V62L49 92H37.5L31 60.5L29.5 92H19Z" fill="#344170"/>
</svg>
